# xmcd
#
# Track frame offsets:
#	150
#	14320
#	28107
#	40194
#	49743
#	60245
#	72916
#	96519
#	112474
#	129149
#	151057
#	171735
#	190561
#	204980
#	220379
#	235733
#	254845
#	270008
#	292203
#	304838
#
# Disc length: 4638 seconds
#
# Revision: 1
# Processed by: cddbd v1.5.2PL0 Copyright (c) Steve Scherf et al.
# Submitted via: audiograbber 1.83.01
#
DISCID=25121c14
DTITLE=Various Artist - 30 Jaar Blues Peer CD2
DYEAR=2014
DGENRE=Blues
TTITLE0=Triggerfinger - Is It
TTITLE1=The Paladins - Let's Buzz
TTITLE2=Chuck Berry - No Particular Place To Go
TTITLE3=The Blasters - American Music
TTITLE4=Barrence Whitfield And The Savages - Shot Down
TTITLE5=The Seatsniffers - Shake It
TTITLE6=Sonny Landreth - Congo Square
TTITLE7=John Mayall and The Bluesbreakers - Voodoo Music
TTITLE8=Guy Forsyth - 105
TTITLE9=John Campbell - Down In The Hole
TTITLE10=Roland - Me And Blind Willie
TTITLE11=John Hiatt - Lipstick Sunset
TTITLE12=Mink DeVille - Cadillac Walk
TTITLE13=El Fish - Shake Up
TTITLE14=Southern Culture On the Skids - Mojo Box
TTITLE15=Royal Southern Brotherhood - Hurts My Heart
TTITLE16=Allen Toussaint - Happiness
TTITLE17=Albert Collins, Robert Cray and Johnny Copeland - T-Bone Shuffle
TTITLE18=Canned Heat - Let's Work Together
TTITLE19=Ian Siegal and The Mississippi Mudbloods - Take A Walk In The Wilderness
EXTD=
EXTT0=
EXTT1=
EXTT2=
EXTT3=
EXTT4=
EXTT5=
EXTT6=
EXTT7=
EXTT8=
EXTT9=
EXTT10=
EXTT11=
EXTT12=
EXTT13=
EXTT14=
EXTT15=
EXTT16=
EXTT17=
EXTT18=
EXTT19=
PLAYORDER=
